<svg width="18" height="18" viewBox="0 0 18 18" fill="none" xmlns="http://www.w3.org/2000/svg">
<path fill-rule="evenodd" clip-rule="evenodd" d="M9.99995 15C13.8659 15 17 11.866 17 8C17 4.13401 13.8659 1 9.99995 1C6.13396 1 2.99995 4.13401 2.99995 8C2.99995 11.866 6.13396 15 9.99995 15ZM9.99995 16C14.4182 16 18 12.4183 18 8C18 3.58172 14.4182 0 9.99995 0C5.58168 0 1.99995 3.58172 1.99995 8C1.99995 10.0341 2.75907 11.8908 4.00946 13.3024L3.99995 13.2929L3.6464 13.6464L0.6464 16.6464C0.451138 16.8417 0.451138 17.1583 0.6464 17.3536C0.841662 17.5488 1.15824 17.5488 1.35351 17.3536L4.35351 14.3536L4.70706 14L4.69756 13.9905C6.10915 15.2409 7.9659 16 9.99995 16ZM6.99995 7.5C6.72381 7.5 6.49995 7.72386 6.49995 8C6.49995 8.27614 6.72381 8.5 6.99995 8.5H9.99995H13C13.2761 8.5 13.5 8.27614 13.5 8C13.5 7.72386 13.2761 7.5 13 7.5H9.99995H6.99995Z" fill="#767676"/>
</svg>
