<svg width="32" height="32" viewBox="0 0 32 32" fill="none" xmlns="http://www.w3.org/2000/svg">
<path d="M1 30.9527C1 30.9527 3.49537 31.9652 6.34722 24.6284C9.19907 17.2916 11.2431 10.7005 13.4786 7.40708C15.7142 4.1137 17.8201 3.45653 19.6025 3.96241C21.3849 4.46829 22.0939 7.5391 20.7507 9.92225C15.9382 18.4607 8.37777 21.3614 8.37777 21.3614M8.37777 21.3614C8.37777 21.3614 14.6401 23.1101 12.6795 29.9406M8.37777 21.3614H21.8077M19.8624 29.9406C19.8624 29.9406 21.4264 21.5129 23.7729 16.6617C25.6468 12.7876 27.2695 10.3225 29.007 8.66467M5 4.99998C8.5 1.49998 13 1.49998 13 1.49998H19C19 1.49998 23 0.99998 27 4.99998C31 8.99998 30.5 13 30.5 13V19C30.5 19 30.5 23.5 27 27C23.5 30.5 19 30.5 19 30.5H13C13 30.5 8.5 30.5 5 27C1.5 23.5 1.5 19 1.5 19V13" stroke="#111111" stroke-linecap="round" stroke-linejoin="round"/>
</svg>
